<svg id="svg" version="1.1" xmlns="http://www.w3.org/2000/svg" xmlns:xlink="http://www.w3.org/1999/xlink" width="400" height="400" viewBox="0, 0, 400,400"><g id="svgg"><path id="path0" d="M87.979 163.712 C 83.302 166.632,83.597 163.872,83.616 204.550 L 83.633 239.400 84.516 241.194 C 85.048 242.273,86.091 243.469,87.135 244.194 L 88.869 245.400 108.369 245.400 L 127.869 245.400 129.434 244.306 C 130.295 243.705,131.450 242.547,132.000 241.733 L 133.000 240.253 132.898 204.259 L 132.797 168.265 131.803 166.569 C 131.177 165.502,130.122 164.490,128.954 163.837 L 127.099 162.800 108.250 162.812 C 89.485 162.825,89.394 162.829,87.979 163.712 M271.200 163.778 C 270.210 164.296,268.950 165.323,268.400 166.060 L 267.400 167.400 267.095 187.000 C 266.927 197.780,266.837 214.173,266.895 223.430 L 267.000 240.260 268.000 241.736 C 268.550 242.549,269.704 243.705,270.565 244.306 L 272.130 245.400 289.565 245.530 C 313.217 245.706,314.433 245.472,315.934 240.464 C 316.714 237.859,316.587 170.231,315.798 167.993 C 313.983 162.851,313.748 162.800,291.800 162.820 L 273.000 162.837 271.200 163.778 " stroke="none" fill="#f0f0f2" fill-rule="evenodd"></path><path id="path1" d="M87.600 163.254 C 85.083 164.785,82.798 168.199,83.296 169.686 C 83.391 169.969,83.771 169.300,84.141 168.200 C 85.938 162.858,86.195 162.800,108.297 162.800 L 127.099 162.800 128.954 163.837 C 131.108 165.040,132.794 167.575,132.812 169.635 C 132.821 170.656,132.917 170.842,133.191 170.373 C 134.107 168.808,131.996 164.943,129.395 163.418 L 127.658 162.400 108.329 162.401 C 89.318 162.403,88.977 162.417,87.600 163.254 M270.745 163.302 C 268.385 164.759,267.117 166.575,266.961 168.719 L 266.824 170.600 267.189 168.916 C 267.688 166.608,269.046 164.898,271.287 163.759 L 273.173 162.800 291.887 162.801 C 310.186 162.803,310.631 162.822,312.000 163.643 C 313.961 164.820,315.484 166.561,315.796 167.982 C 316.087 169.306,316.800 170.032,316.800 169.004 C 316.800 167.493,315.085 165.141,312.640 163.300 L 311.445 162.400 291.822 162.402 L 272.200 162.404 270.745 163.302 M82.647 196.100 C 82.167 197.902,81.818 198.133,80.553 197.485 C 78.239 196.300,75.133 196.239,22.697 196.351 L -0.006 196.400 0.129 275.700 C 0.268 356.764,0.271 357.000,1.215 357.000 C 1.517 357.000,1.862 357.416,1.982 357.924 C 2.102 358.432,2.335 358.837,2.500 358.824 C 3.428 358.751,3.600 358.876,3.600 359.624 C 3.600 360.077,3.744 360.358,3.919 360.250 C 4.379 359.966,5.400 360.680,5.400 361.285 C 5.400 361.591,6.008 361.850,6.900 361.924 C 8.244 362.035,8.597 362.349,8.448 363.299 C 8.422 363.464,94.620 363.598,200.000 363.598 C 305.380 363.598,391.578 363.464,391.552 363.299 C 391.394 362.292,391.728 362.000,393.037 362.000 C 394.138 362.000,394.524 361.813,394.684 361.200 C 394.875 360.471,395.287 360.224,396.100 360.353 C 396.265 360.379,396.400 360.040,396.400 359.600 C 396.400 358.884,396.816 358.613,397.700 358.753 C 397.865 358.779,398.000 358.370,398.000 357.844 C 398.000 357.188,398.214 356.906,398.684 356.944 C 399.918 357.045,399.954 354.783,399.977 275.100 L 400.000 196.400 361.855 196.400 C 323.669 196.400,320.223 196.513,318.793 197.806 C 318.190 198.352,318.082 198.262,317.605 196.816 C 316.546 193.605,316.400 196.079,316.400 217.277 C 316.400 241.789,316.471 241.143,313.485 243.827 C 312.401 244.802,311.682 245.600,311.888 245.600 C 312.795 245.600,315.954 243.076,316.403 241.992 C 317.186 240.103,318.066 240.436,317.748 242.500 C 316.684 249.407,311.767 253.010,302.830 253.430 C 279.492 254.529,272.688 253.722,268.892 249.409 C 267.067 247.336,264.841 242.365,265.110 240.961 C 265.354 239.682,265.950 239.744,266.437 241.100 C 266.896 242.376,271.602 246.223,271.599 245.320 C 271.598 245.144,271.054 244.640,270.390 244.200 C 269.726 243.760,268.692 242.696,268.091 241.835 L 267.000 240.269 266.884 217.935 C 266.812 204.005,266.624 195.600,266.384 195.600 C 266.173 195.600,266.000 195.746,266.000 195.924 C 266.000 197.339,265.012 197.638,262.363 197.023 C 258.324 196.086,140.265 196.041,137.650 196.975 C 135.290 197.818,134.860 197.769,134.327 196.600 C 133.342 194.438,133.233 196.355,133.119 217.935 L 133.000 240.269 131.909 241.835 C 131.308 242.696,130.274 243.760,129.610 244.200 C 128.946 244.640,128.402 245.144,128.401 245.320 C 128.398 246.223,133.104 242.376,133.563 241.100 C 134.160 239.439,134.922 239.709,134.690 241.500 C 133.844 248.057,129.557 252.187,122.462 253.282 C 119.393 253.755,96.296 253.960,94.800 253.527 C 94.250 253.368,93.260 253.158,92.600 253.061 C 90.599 252.766,89.200 252.331,89.200 252.003 C 89.200 251.833,88.885 251.590,88.500 251.464 C 86.296 250.741,84.611 249.280,84.013 247.574 C 83.671 246.598,83.248 245.576,83.073 245.302 C 82.898 245.027,82.687 244.487,82.603 244.102 C 81.885 240.767,81.885 240.800,82.585 240.800 C 82.968 240.800,83.456 241.295,83.694 241.925 C 84.243 243.380,88.400 246.261,88.400 245.187 C 88.400 244.974,88.234 244.800,88.031 244.800 C 87.191 244.800,85.057 242.532,84.354 240.893 C 83.646 239.241,83.600 237.797,83.600 217.167 C 83.600 197.180,83.420 193.199,82.647 196.100 M318.600 211.762 C 318.600 212.291,318.465 212.640,318.300 212.538 C 318.135 212.436,318.000 212.003,318.000 211.576 C 318.000 211.149,318.135 210.800,318.300 210.800 C 318.465 210.800,318.600 211.233,318.600 211.762 M318.800 215.600 C 318.800 216.480,318.620 217.200,318.400 217.200 C 318.180 217.200,318.000 216.480,318.000 215.600 C 318.000 214.720,318.180 214.000,318.400 214.000 C 318.620 214.000,318.800 214.720,318.800 215.600 M318.794 223.900 C 318.797 224.395,318.620 224.800,318.400 224.800 C 318.180 224.800,318.003 224.125,318.006 223.300 C 318.011 222.184,318.112 221.954,318.400 222.400 C 318.613 222.730,318.791 223.405,318.794 223.900 " stroke="none" fill="#532bd3" fill-rule="evenodd"></path><path id="path2" d="M64.756 38.900 C 64.286 39.795,64.288 39.796,65.142 39.038 C 66.095 38.191,66.182 38.000,65.614 38.000 C 65.402 38.000,65.016 38.405,64.756 38.900 M348.600 52.800 C 348.998 53.240,349.392 53.600,349.476 53.600 C 349.560 53.600,349.435 53.240,349.200 52.800 C 348.965 52.360,348.570 52.000,348.324 52.000 C 348.078 52.000,348.202 52.360,348.600 52.800 M78.202 64.398 C 77.803 64.839,77.662 65.200,77.889 65.200 C 78.392 65.200,79.390 64.057,79.121 63.788 C 79.015 63.682,78.602 63.956,78.202 64.398 M322.400 65.586 C 322.400 65.798,322.805 66.184,323.300 66.444 C 324.195 66.914,324.196 66.912,323.438 66.058 C 322.591 65.105,322.400 65.018,322.400 65.586 M8.400 87.228 C 8.400 87.816,8.119 88.000,7.223 88.000 C 6.544 88.000,5.824 88.307,5.523 88.726 C 5.235 89.126,4.685 89.570,4.300 89.714 C 3.915 89.857,3.600 90.230,3.600 90.541 C 3.600 90.852,3.222 91.206,2.760 91.326 C 2.296 91.448,2.038 91.738,2.184 91.974 C 2.329 92.209,2.018 92.565,1.491 92.766 C 0.179 93.264,0.294 88.848,0.133 144.684 L -0.012 195.168 40.894 195.284 C 63.392 195.348,81.890 195.339,82.000 195.264 C 82.110 195.190,82.202 188.980,82.205 181.464 L 82.211 167.800 83.515 165.927 C 84.233 164.897,85.571 163.502,86.489 162.827 L 88.158 161.600 108.464 161.600 L 128.770 161.600 130.870 163.312 C 134.444 166.225,134.544 166.707,134.790 182.108 L 135.000 195.216 199.994 195.222 L 264.988 195.229 265.308 194.114 C 265.485 193.501,265.512 187.960,265.368 181.800 C 265.043 167.774,266.165 163.838,271.018 161.993 C 272.519 161.422,311.403 161.466,312.475 162.040 C 313.877 162.790,315.655 164.529,316.729 166.200 L 317.758 167.800 317.666 181.200 C 317.615 188.570,317.715 194.780,317.887 195.000 C 318.093 195.263,332.173 195.360,359.107 195.284 L 400.015 195.168 399.907 144.549 L 399.800 93.929 398.800 93.112 C 398.250 92.662,397.850 92.123,397.911 91.913 C 397.973 91.703,397.674 91.440,397.248 91.329 C 396.822 91.217,396.384 90.783,396.274 90.363 C 396.165 89.943,395.809 89.600,395.484 89.600 C 395.159 89.600,394.798 89.235,394.681 88.789 C 394.564 88.342,394.318 88.004,394.134 88.036 C 392.709 88.287,391.600 87.933,391.600 87.228 C 391.600 86.321,351.281 85.903,350.202 86.798 C 349.853 87.088,345.716 87.152,337.145 87.000 C 320.797 86.710,79.203 86.710,62.855 87.000 C 54.284 87.152,50.147 87.088,49.798 86.798 C 48.719 85.903,8.400 86.321,8.400 87.228 " stroke="none" fill="#2b0c93" fill-rule="evenodd"></path><path id="path3" d="M69.800 37.200 C 69.325 37.725,68.568 38.000,67.600 38.000 C 66.632 38.000,65.875 38.275,65.400 38.800 C 65.002 39.240,64.276 39.600,63.787 39.600 C 63.298 39.600,62.658 39.889,62.365 40.242 C 62.073 40.595,61.420 41.040,60.916 41.232 C 60.412 41.423,60.000 41.855,60.000 42.190 C 60.000 42.526,59.661 42.800,59.247 42.800 C 58.830 42.800,58.400 43.157,58.284 43.600 C 58.169 44.040,57.788 44.400,57.437 44.400 C 57.087 44.400,56.800 44.658,56.800 44.973 C 56.800 45.288,56.440 45.660,56.000 45.800 C 55.560 45.940,55.200 46.358,55.200 46.731 C 55.200 47.103,54.840 47.632,54.400 47.907 C 53.948 48.190,53.600 48.840,53.600 49.403 C 53.600 50.032,53.374 50.400,52.987 50.400 C 52.651 50.400,52.260 50.715,52.119 51.100 C 51.979 51.485,51.534 52.229,51.132 52.754 C 50.729 53.279,50.400 54.330,50.400 55.091 C 50.400 55.868,50.050 56.919,49.600 57.491 C 48.437 58.969,48.345 85.767,49.500 86.643 C 50.387 87.317,73.990 87.447,75.226 86.786 C 75.961 86.393,76.000 85.843,76.000 75.786 C 76.000 65.763,76.039 65.200,76.738 65.200 C 77.144 65.200,77.802 64.840,78.200 64.400 C 79.296 63.189,322.400 63.127,322.400 64.338 C 322.400 64.744,322.760 65.402,323.200 65.800 C 323.959 66.487,324.000 67.032,324.000 76.448 C 324.000 85.850,324.041 86.394,324.774 86.786 C 326.010 87.447,349.613 87.317,350.500 86.643 C 351.655 85.767,351.563 58.969,350.400 57.491 C 349.952 56.922,349.600 55.868,349.600 55.099 C 349.600 54.232,349.304 53.456,348.800 53.000 C 348.360 52.602,348.000 51.876,348.000 51.387 C 348.000 50.898,347.711 50.258,347.358 49.965 C 347.005 49.673,346.560 49.020,346.368 48.516 C 346.177 48.012,345.745 47.600,345.410 47.600 C 345.074 47.600,344.800 47.253,344.800 46.827 C 344.800 46.402,344.440 45.940,344.000 45.800 C 343.560 45.660,343.200 45.309,343.200 45.020 C 343.200 44.730,342.840 44.399,342.400 44.284 C 341.960 44.169,341.600 43.788,341.600 43.437 C 341.600 43.087,341.283 42.800,340.896 42.800 C 340.509 42.800,339.968 42.440,339.693 42.000 C 339.416 41.557,338.760 41.200,338.224 41.200 C 337.605 41.200,337.162 40.910,337.000 40.400 C 336.860 39.960,336.442 39.600,336.069 39.600 C 335.697 39.600,335.168 39.240,334.893 38.800 C 334.518 38.200,333.960 38.000,332.659 38.000 C 331.432 38.000,330.712 37.766,330.200 37.200 C 329.056 35.935,70.944 35.935,69.800 37.200 M316.441 182.524 C 316.413 191.503,316.531 195.566,316.815 195.391 C 317.314 195.082,317.307 172.906,316.808 170.784 C 316.616 169.970,316.465 174.805,316.441 182.524 M83.054 171.856 C 82.627 174.976,82.753 195.200,83.200 195.200 C 83.458 195.200,83.600 190.733,83.600 182.600 C 83.600 169.937,83.524 168.432,83.054 171.856 M133.043 170.633 C 132.617 171.742,132.765 195.131,133.200 195.400 C 133.463 195.563,133.600 191.271,133.600 182.824 C 133.600 170.353,133.552 169.305,133.043 170.633 M266.400 182.800 C 266.400 191.263,266.537 195.563,266.800 195.400 C 267.053 195.244,267.200 190.604,267.200 182.800 C 267.200 174.996,267.053 170.356,266.800 170.200 C 266.537 170.037,266.400 174.337,266.400 182.800 M89.473 245.882 C 91.117 246.585,125.429 246.602,127.098 245.900 C 128.071 245.491,124.660 245.400,108.316 245.400 C 92.381 245.400,88.573 245.497,89.473 245.882 M273.045 245.869 C 275.232 246.529,308.475 246.530,310.294 245.870 C 311.314 245.499,307.353 245.400,291.539 245.400 C 275.584 245.400,271.808 245.496,273.045 245.869 " stroke="none" fill="#737a82" fill-rule="evenodd"></path><path id="path4" d="M86.489 162.827 C 85.571 163.502,84.230 164.897,83.510 165.927 L 82.200 167.800 82.347 180.430 C 82.428 187.376,82.379 193.586,82.237 194.230 L 81.981 195.400 40.990 195.282 C 4.142 195.177,-0.000 195.228,-0.000 195.786 C -0.000 196.344,3.897 196.403,38.100 196.364 C 75.797 196.321,78.373 196.387,80.480 197.453 C 81.074 197.754,81.637 198.000,81.732 198.000 C 82.498 198.000,82.776 194.341,82.915 182.400 C 83.163 161.116,81.527 162.404,108.329 162.401 L 127.658 162.400 129.395 163.418 C 133.315 165.716,133.586 166.949,133.594 182.520 C 133.601 198.275,133.639 198.407,137.650 196.975 C 140.227 196.054,258.317 196.085,262.294 197.007 C 263.699 197.333,264.924 197.600,265.015 197.600 C 266.137 197.600,266.400 194.847,266.400 183.074 C 266.400 167.167,266.701 165.799,270.745 163.302 L 272.200 162.404 291.822 162.402 L 311.445 162.400 312.640 163.300 C 316.979 166.568,316.936 166.386,317.089 182.000 C 317.228 196.221,317.523 198.956,318.793 197.806 C 320.223 196.513,323.669 196.400,361.855 196.400 C 395.978 196.400,400.000 196.335,400.000 195.782 C 400.000 195.229,395.747 195.177,358.995 195.282 C 319.744 195.395,317.980 195.369,317.761 194.677 C 317.635 194.280,317.583 188.070,317.646 180.877 L 317.760 167.800 316.731 166.200 C 315.655 164.529,313.876 162.790,312.475 162.040 C 311.403 161.466,272.519 161.422,271.018 161.993 C 266.165 163.838,265.043 167.774,265.368 181.800 C 265.512 187.960,265.485 193.501,265.308 194.114 L 264.988 195.229 199.994 195.222 L 135.000 195.216 134.790 182.108 C 134.544 166.707,134.444 166.225,130.870 163.312 L 128.770 161.600 108.464 161.600 L 88.158 161.600 86.489 162.827 M318.000 211.576 C 318.000 212.003,318.135 212.436,318.300 212.538 C 318.465 212.640,318.600 212.291,318.600 211.762 C 318.600 211.233,318.465 210.800,318.300 210.800 C 318.135 210.800,318.000 211.149,318.000 211.576 M318.000 215.600 C 318.000 216.480,318.180 217.200,318.400 217.200 C 318.620 217.200,318.800 216.480,318.800 215.600 C 318.800 214.720,318.620 214.000,318.400 214.000 C 318.180 214.000,318.000 214.720,318.000 215.600 M318.006 223.300 C 318.003 224.125,318.180 224.800,318.400 224.800 C 318.909 224.800,318.909 223.188,318.400 222.400 C 318.112 221.954,318.011 222.184,318.006 223.300 M133.558 241.100 C 133.052 242.489,129.867 244.972,127.561 245.775 C 124.817 246.731,91.803 246.693,88.980 245.731 C 86.398 244.851,84.206 243.265,83.688 241.900 C 83.456 241.291,82.964 240.800,82.585 240.800 C 81.885 240.800,81.885 240.767,82.603 244.102 C 82.687 244.487,82.898 245.027,83.073 245.302 C 83.248 245.576,83.671 246.598,84.013 247.574 C 84.611 249.280,86.296 250.741,88.500 251.464 C 88.885 251.590,89.200 251.833,89.200 252.003 C 89.200 252.331,90.599 252.766,92.600 253.061 C 93.260 253.158,94.250 253.368,94.800 253.527 C 96.296 253.960,119.393 253.755,122.462 253.282 C 129.557 252.187,133.844 248.057,134.690 241.500 C 134.922 239.708,134.162 239.440,133.558 241.100 M265.110 240.961 C 265.006 241.504,265.447 243.163,266.125 244.774 C 269.356 252.466,273.505 254.075,289.400 253.800 C 305.278 253.526,307.075 253.371,310.429 251.988 C 314.359 250.367,317.079 246.841,317.748 242.500 C 318.064 240.447,317.187 240.099,316.412 241.971 C 315.763 243.538,313.457 245.073,310.656 245.802 C 307.419 246.645,276.060 246.673,272.913 245.835 C 270.453 245.180,267.011 242.661,266.442 241.100 C 265.948 239.744,265.354 239.682,265.110 240.961 " stroke="none" fill="#4327a2" fill-rule="evenodd"></path></g></svg>